<?xml version="1.0" encoding="utf-8"?>
<svg xmlns="http://www.w3.org/2000/svg" viewBox="0 0 64 64" width="72" height="72">
	<linearGradient id="s3zrrW6oQNvxGj7oqhvoVa" x1="32" x2="32" y1="7.5" y2="57.167" gradientUnits="userSpaceOnUse"
					spreadMethod="reflect">
		<stop offset="0" stop-color="#1a6dff"/>
		<stop offset="1" stop-color="#c822ff"/>
	</linearGradient>
	<path fill="url(#s3zrrW6oQNvxGj7oqhvoVa)"
		  d="M55,8H9c-1.654,0-3,1.346-3,3v32c0,1.654,1.346,3,3,3h17v3c0,0.552-0.449,1-1,1h-2h-1 c-1.654,0-3,1.346-3,3v3h26v-3c0-1.654-1.346-3-3-3h-1h-2c-0.551,0-1-0.448-1-1v-3h17c1.654,0,3-1.346,3-3V11 C58,9.346,56.654,8,55,8z M9,10h46c0.551,0,1,0.448,1,1v23H8V11C8,10.448,8.449,10,9,10z M41,52h1c0.551,0,1,0.448,1,1v1H21v-1 c0-0.552,0.449-1,1-1h1h2h14H41z M36.184,50h-8.369C27.928,49.686,28,49.352,28,49v-3h8v3C36,49.352,36.072,49.686,36.184,50z M55,44H38H26H9c-0.551,0-1-0.448-1-1v-7h48v7C56,43.552,55.551,44,55,44z"/>
	<linearGradient id="s3zrrW6oQNvxGj7oqhvoVb" x1="32" x2="32" y1="7.5" y2="57.167" gradientUnits="userSpaceOnUse"
					spreadMethod="reflect">
		<stop offset="0" stop-color="#1a6dff"/>
		<stop offset="1" stop-color="#c822ff"/>
	</linearGradient>
	<path fill="url(#s3zrrW6oQNvxGj7oqhvoVb)" d="M32 38A2 2 0 1 0 32 42A2 2 0 1 0 32 38Z"/>
	<linearGradient id="s3zrrW6oQNvxGj7oqhvoVc" x1="50.353" x2="50.353" y1="11.333" y2="19.667"
					gradientUnits="userSpaceOnUse" spreadMethod="reflect">
		<stop offset="0" stop-color="#6dc7ff"/>
		<stop offset="1" stop-color="#e6abff"/>
	</linearGradient>
	<path fill="url(#s3zrrW6oQNvxGj7oqhvoVc)"
		  d="M54,18.793V13c0-0.552-0.448-1-1-1h-5.793c-0.446,0-0.669,0.539-0.354,0.854l6.293,6.293 C53.461,19.461,54,19.238,54,18.793z"/>
</svg>
