<?xml version="1.0" encoding="utf-8"?>
<svg xmlns="http://www.w3.org/2000/svg" viewBox="0 0 64 64" width="72" height="72">
	<linearGradient id="9N8XJ4yONaQ6aM1D~i~yja" x1="44" x2="44" y1="15" y2="26.426" gradientUnits="userSpaceOnUse"
					spreadMethod="reflect">
		<stop offset="0" stop-color="#6dc7ff"/>
		<stop offset="1" stop-color="#e6abff"/>
	</linearGradient>
	<path fill="url(#9N8XJ4yONaQ6aM1D~i~yja)" d="M44 17A4 4 0 1 0 44 25A4 4 0 1 0 44 17Z"/>
	<linearGradient id="9N8XJ4yONaQ6aM1D~i~yjb" x1="32" x2="32" y1="6.333" y2="57.197" gradientUnits="userSpaceOnUse"
					spreadMethod="reflect">
		<stop offset="0" stop-color="#1a6dff"/>
		<stop offset="1" stop-color="#c822ff"/>
	</linearGradient>
	<path fill="url(#9N8XJ4yONaQ6aM1D~i~yjb)"
		  d="M53,7H11c-2.757,0-5,2.243-5,5v32c0,2.757,2.243,5,5,5h23v5c0,1.654,1.346,3,3,3h8 c1.654,0,3-1.346,3-3v-5h5c2.757,0,5-2.243,5-5V12C58,9.243,55.757,7,53,7z M26,41v2h-2v-8h5c0.552,0,1,0.449,1,1v7h-2v-2H26z M18,39v4h-2V30c0-0.551,0.448-1,1-1h4c0.552,0,1,0.449,1,1v13h-2v-4H18z M12,33h2v10h-2V33z M29,33h-5v-3c0-1.654-1.346-3-3-3h-4 c-1.654,0-3,1.346-3,3v1h-2V13h40v30h-4v-4.394c0-0.594-0.174-1.17-0.504-1.666l-3.998-5.997c-0.559-0.837-1.492-1.337-2.498-1.337 s-1.939,0.5-2.498,1.337l-3.998,5.997C34.174,37.437,34,38.012,34,38.606V43h-2v-7C32,34.346,30.654,33,29,33z M39.535,33h2.93 l2.667,4h-8.264L39.535,33z M36,39h2v12h-2V39z M40,39h2v12h-2V39z M44,39h2v12h-2V39z M45,55h-8c-0.552,0-1-0.449-1-1v-1h10v1 C46,54.551,45.552,55,45,55z M56,44c0,1.654-1.346,3-3,3h-5v-2h4c1.103,0,2-0.897,2-2V13c0-1.103-0.897-2-2-2H12 c-1.103,0-2,0.897-2,2v30c0,1.103,0.897,2,2,2h22v2H11c-1.654,0-3-1.346-3-3V12c0-1.654,1.346-3,3-3h42c1.654,0,3,1.346,3,3V44z"/>
	<linearGradient id="9N8XJ4yONaQ6aM1D~i~yjc" x1="19" x2="19" y1="6.333" y2="57.197" gradientUnits="userSpaceOnUse"
					spreadMethod="reflect">
		<stop offset="0" stop-color="#1a6dff"/>
		<stop offset="1" stop-color="#c822ff"/>
	</linearGradient>
	<path fill="url(#9N8XJ4yONaQ6aM1D~i~yjc)" d="M18 35H20V37H18z"/>
	<linearGradient id="9N8XJ4yONaQ6aM1D~i~yjd" x1="19" x2="19" y1="6.333" y2="57.197" gradientUnits="userSpaceOnUse"
					spreadMethod="reflect">
		<stop offset="0" stop-color="#1a6dff"/>
		<stop offset="1" stop-color="#c822ff"/>
	</linearGradient>
	<path fill="url(#9N8XJ4yONaQ6aM1D~i~yjd)" d="M18 31H20V33H18z"/>
	<linearGradient id="9N8XJ4yONaQ6aM1D~i~yje" x1="27" x2="27" y1="6.333" y2="57.197" gradientUnits="userSpaceOnUse"
					spreadMethod="reflect">
		<stop offset="0" stop-color="#1a6dff"/>
		<stop offset="1" stop-color="#c822ff"/>
	</linearGradient>
	<path fill="url(#9N8XJ4yONaQ6aM1D~i~yje)" d="M26 37H28V39H26z"/>
</svg>
