<?xml version="1.0" encoding="utf-8"?>
<svg xmlns="http://www.w3.org/2000/svg" viewBox="0 0 30 30" width="20" height="20">
	<path
		d="M4 5C2.895 5 2 5.895 2 7L2 23C2 24.105 2.895 25 4 25L26 25C27.105 25 28 24.105 28 23L28 7C28 5.895 27.105 5 26 5L4 5 z M 13 12L15.517578 12C17.304578 12 18.322266 13.066406 18.322266 14.941406C18.322266 16.910406 17.320578 18 15.517578 18L13 18L13 12 z M 5.5644531 12.003906L7.0898438 12.003906L7.0898438 14.357422L9.4804688 14.357422L9.4804688 12.003906L11 12.003906L11 18L9.4785156 18L9.4785156 15.582031L7.0898438 15.582031L7.0898438 18L5.5644531 18L5.5644531 12.003906 z M 20 12.003906L22.638672 12.003906C24.039672 12.003906 24.878906 12.745422 24.878906 13.982422C24.878906 14.718422 24.511469 15.391734 23.855469 15.677734L25.052734 18L23.341797 18L22.314453 15.902344L21.525391 15.902344L21.525391 18L20 18L20 12.003906 z M 21.523438 13.154297L21.523438 14.824219L22.425781 14.824219C22.985781 14.824219 23.318359 14.513141 23.318359 13.994141C23.318359 13.483141 22.966875 13.154297 22.421875 13.154297L21.523438 13.154297 z M 14.525391 13.226562L14.525391 16.773438L15.244141 16.773438C16.233141 16.773438 16.767578 16.159656 16.767578 14.972656C16.767578 13.853656 16.203141 13.226563 15.244141 13.226562L14.525391 13.226562 z"
		fill="#FFFFFF"/>
</svg>
