<?xml version="1.0" encoding="utf-8"?>
<svg xmlns="http://www.w3.org/2000/svg" viewBox="0 0 50 50" width="100" height="100">
	<path
		d="M8.6445312 6L6 8.6445312L6 11.472656L11.472656 6L8.6445312 6 z M 17.130859 6L6 17.130859L6 19.957031L19.957031 6L17.130859 6 z M 25.615234 6L6 25.615234L6 28.443359L28.443359 6L25.615234 6 z M 34.101562 6L6 34.101562L6 36.929688L36.929688 6L34.101562 6 z M 42.585938 6L6 42.585938L6 44L7.4140625 44L44 7.4140625L44 6L42.585938 6 z M 44 13.070312L13.070312 44L15.898438 44L44 15.898438L44 13.070312 z M 44 21.556641L21.556641 44L24.384766 44L44 24.384766L44 21.556641 z M 44 30.042969L30.042969 44L32.869141 44L44 32.869141L44 30.042969 z M 44 38.527344L38.527344 44L41.355469 44L44 41.355469L44 38.527344 z"
		fill="#FFFFFF"/>
</svg>
